<svg id="Capa_1" enable-background="new 0 0 509.333 509.333" height="512" viewBox="0 0 509.333 509.333" width="512" xmlns="http://www.w3.org/2000/svg"><g><g><path d="m254.667 427.243c-78.411 0-142.203-63.792-142.203-142.203s63.792-142.203 142.203-142.203 142.203 63.792 142.203 142.203-63.792 142.203-142.203 142.203zm0-254.406c-61.869 0-112.203 50.334-112.203 112.203s50.334 112.203 112.203 112.203 112.203-50.334 112.203-112.203-50.334-112.203-112.203-112.203z" fill="#007dd1"/></g><g><path d="m254.667 427.243v-30c61.869 0 112.203-50.334 112.203-112.203s-50.334-112.203-112.203-112.203v-30c78.411 0 142.203 63.792 142.203 142.203s-63.792 142.203-142.203 142.203z" fill="#07518d"/></g><path d="m509.045 337.402c-2.236-35.767-17.438-69.433-42.803-94.798-19.283-19.284-43.652-32.811-69.992-39.093 3.689-12.997 5.552-26.446 5.552-40.177 0-33.907-11.816-67.001-33.271-93.183-21.151-25.811-50.684-43.824-83.156-50.724l-18.117-3.849v30.764l11.011 3.038c38.209 10.542 64.895 45.624 64.895 85.313 0 48.797-39.698 88.495-88.495 88.495-48.796 0-88.495-39.698-88.495-88.495 0-39.688 26.686-74.771 64.895-85.313l11.01-3.038v-30.762l-18.117 3.849c-32.473 6.899-62.005 24.913-83.156 50.724-21.456 26.182-33.271 59.275-33.271 93.183 0 13.73 1.863 27.181 5.552 40.177-26.34 6.282-50.708 19.809-69.993 39.093-25.369 25.364-40.57 59.032-42.806 94.8-2.215 35.44 8.391 70.421 29.866 98.498l10.418 13.622 21.269-21.313-7.294-10.314c-24.92-35.238-20.817-83.005 9.756-113.578 34.505-34.504 90.647-34.504 125.15 0 34.504 34.505 34.504 90.647 0 125.151-12.853 12.853-29.063 21.333-46.877 24.523-17.431 3.124-35.176 1.025-51.316-6.063l-9.39-4.124-22.581 22.59 17.644 9.584c21.488 11.673 45.926 17.771 70.44 17.771 6.645 0 13.298-.448 19.896-1.355 31.995-4.396 61.008-18.82 83.9-41.713 1.184-1.185 2.35-2.391 3.496-3.618 1.146 1.228 2.312 2.435 3.496 3.618 22.894 22.894 51.907 37.318 83.904 41.713 30.941 4.255 63.025-1.58 90.34-16.419l17.646-9.587-22.586-22.586-9.389 4.124c-16.14 7.09-33.889 9.189-51.318 6.065-17.816-3.189-34.027-11.67-46.881-24.523-34.504-34.504-34.504-90.646 0-125.151 16.715-16.714 38.938-25.919 62.575-25.919s45.86 9.205 62.575 25.919c30.571 30.571 34.676 78.336 9.76 113.573l-7.3 10.325 21.288 21.288 10.407-13.608c21.474-28.079 32.078-63.058 29.863-98.497z" fill="#2094f3"/><path d="m509.045 337.402c-2.236-35.767-17.438-69.433-42.803-94.798-19.283-19.284-43.652-32.811-69.992-39.093 3.689-12.997 5.552-26.446 5.552-40.177 0-33.907-11.816-67.001-33.271-93.183-21.151-25.811-50.684-43.824-83.156-50.724l-18.117-3.849v30.764l11.011 3.038c38.209 10.542 64.895 45.624 64.895 85.313 0 48.797-39.698 88.495-88.495 88.495v223.877c1.146 1.228 2.312 2.435 3.496 3.618 22.894 22.894 51.907 37.318 83.904 41.713 30.941 4.255 63.025-1.58 90.34-16.419l17.646-9.587-22.586-22.586-9.389 4.124c-16.14 7.09-33.889 9.189-51.318 6.065-17.816-3.189-34.027-11.67-46.881-24.523-34.504-34.504-34.504-90.646 0-125.151 16.715-16.714 38.938-25.919 62.575-25.919s45.86 9.205 62.575 25.919c30.571 30.571 34.676 78.336 9.76 113.573l-7.3 10.325 21.288 21.288 10.407-13.608c21.47-28.077 32.074-63.056 29.859-98.495z" fill="#0a72c7"/></g></svg>