<svg id="Capa_1" enable-background="new 0 0 509.333 509.333" height="512" viewBox="0 0 509.333 509.333" width="512" xmlns="http://www.w3.org/2000/svg" fill="#ffffff"><g><path d="m509.045 337.402c-2.236-35.767-17.438-69.433-42.803-94.798-19.283-19.284-43.652-32.811-69.992-39.093 3.689-12.997 5.552-26.446 5.552-40.177 0-33.907-11.816-67.001-33.271-93.183-21.151-25.811-50.684-43.824-83.156-50.724l-18.117-3.849v30.764l11.011 3.038c38.209 10.542 64.895 45.624 64.895 85.313 0 12.047-2.424 23.538-6.803 34.016-23.131-16.292-51.313-25.874-81.692-25.874-30.38 0-58.561 9.581-81.692 25.873-4.379-10.478-6.803-21.969-6.803-34.016 0-39.688 26.686-74.771 64.895-85.313l11.01-3.038v-30.761l-18.117 3.849c-32.473 6.899-62.005 24.913-83.156 50.724-21.456 26.182-33.271 59.275-33.271 93.183 0 13.73 1.863 27.181 5.552 40.177-26.34 6.282-50.708 19.809-69.993 39.093-25.369 25.364-40.57 59.032-42.806 94.8-2.215 35.44 8.391 70.421 29.866 98.498l10.418 13.622 21.269-21.313-7.294-10.314c-24.92-35.238-20.817-83.005 9.756-113.578 13.609-13.609 30.587-21.826 48.273-24.7-.068 1.799-.113 3.604-.113 5.42 0 59.134 36.286 109.947 87.758 131.36-3.113 4.609-6.69 8.996-10.767 13.072-12.853 12.853-29.063 21.333-46.877 24.523-17.431 3.124-35.176 1.025-51.316-6.063l-9.39-4.124-22.581 22.59 17.644 9.584c21.488 11.673 45.926 17.771 70.44 17.771 6.645 0 13.298-.448 19.896-1.355 31.995-4.396 61.008-18.82 83.9-41.713 1.184-1.185 2.35-2.391 3.496-3.618 1.146 1.228 2.312 2.435 3.496 3.618 22.894 22.894 51.907 37.318 83.904 41.713 30.941 4.255 63.025-1.58 90.34-16.419l17.646-9.587-22.586-22.586-9.389 4.124c-16.14 7.09-33.889 9.189-51.318 6.065-17.816-3.189-34.027-11.67-46.881-24.523-4.076-4.076-7.654-8.463-10.767-13.072 51.472-21.413 87.758-72.226 87.758-131.36 0-1.834-.046-3.657-.115-5.475 18.201 2.941 34.982 11.463 48.275 24.755 30.571 30.571 34.676 78.336 9.76 113.573l-7.3 10.325 21.288 21.288 10.407-13.608c21.472-28.079 32.076-63.058 29.861-98.497zm-254.378-164.565c24.464 0 47.12 7.875 65.578 21.216-16.204 17.885-39.601 29.136-65.578 29.136s-49.374-11.252-65.578-29.136c18.458-13.341 41.114-21.216 65.578-21.216zm-112.203 112.203c0-1.738.046-3.465.124-5.183 17.178 3.075 33.619 11.215 46.867 24.463 22.916 22.917 30.593 55.374 23.07 84.701-41.046-16.695-70.061-57.01-70.061-103.981zm154.345 103.982c-7.524-29.327.153-61.785 23.069-84.701 12.948-12.948 29.209-21.365 46.865-24.511.08 1.734.126 3.477.126 5.231.001 46.97-29.014 87.285-70.06 103.981z"/></g></svg>