<svg width="1203" height="394" viewBox="0 0 1203 394" fill="none" xmlns="http://www.w3.org/2000/svg">
<path d="M118.32 141.789C129.941 128.312 144.639 121.574 162.412 121.574C196.201 121.574 213.34 140.861 213.828 179.436V283H178.232V180.754C178.232 169.816 175.84 162.102 171.055 157.609C166.367 153.02 159.434 150.725 150.254 150.725C135.996 150.725 125.352 157.072 118.32 169.768V283H82.7246V58H118.32V141.789ZM345.957 267.473C335.508 279.777 320.664 285.93 301.426 285.93C284.238 285.93 271.201 280.9 262.314 270.842C253.525 260.783 249.131 246.232 249.131 227.189V124.504H284.727V226.75C284.727 246.867 293.076 256.926 309.775 256.926C327.061 256.926 338.73 250.725 344.785 238.322V124.504H380.381V283H346.836L345.957 267.473ZM333.652 102.385H304.062L264.512 58H305.088L333.652 102.385ZM449.668 124.504L450.693 142.814C462.412 128.654 477.793 121.574 496.836 121.574C529.844 121.574 546.641 140.471 547.227 178.264V283H511.631V180.314C511.631 170.256 509.434 162.834 505.039 158.049C500.742 153.166 493.662 150.725 483.799 150.725C469.443 150.725 458.75 157.219 451.719 170.207V283H416.123V124.504H449.668ZM577.402 202.58C577.402 177.971 583.164 158.342 594.688 143.693C606.309 128.947 621.689 121.574 640.83 121.574C658.896 121.574 673.105 127.873 683.457 140.471L685.068 124.504H717.148V278.166C717.148 298.967 710.654 315.373 697.666 327.385C684.775 339.396 667.344 345.402 645.371 345.402C633.75 345.402 622.373 342.961 611.24 338.078C600.205 333.293 591.807 326.994 586.045 319.182L602.891 297.795C613.828 310.783 627.305 317.277 643.32 317.277C655.137 317.277 664.463 314.055 671.299 307.609C678.135 301.262 681.553 291.887 681.553 279.484V268.791C671.299 280.217 657.627 285.93 640.537 285.93C621.982 285.93 606.797 278.557 594.98 263.811C583.262 249.064 577.402 228.654 577.402 202.58ZM612.852 205.656C612.852 221.574 616.074 234.123 622.52 243.303C629.062 252.385 638.096 256.926 649.619 256.926C663.975 256.926 674.619 250.773 681.553 238.469V168.742C674.814 156.73 664.268 150.725 649.912 150.725C638.193 150.725 629.062 155.363 622.52 164.641C616.074 173.918 612.852 187.59 612.852 205.656Z" fill="white"/>
<path d="M861.582 124.504L862.607 142.814C874.326 128.654 889.707 121.574 908.75 121.574C941.758 121.574 958.555 140.471 959.141 178.264V283H923.545V180.314C923.545 170.256 921.348 162.834 916.953 158.049C912.656 153.166 905.576 150.725 895.713 150.725C881.357 150.725 870.664 157.219 863.633 170.207V283H828.037V124.504H861.582ZM1065.34 285.93C1042.78 285.93 1024.47 278.85 1010.41 264.689C996.445 250.432 989.463 231.486 989.463 207.854V203.459C989.463 187.639 992.49 173.527 998.545 161.125C1004.7 148.625 1013.29 138.908 1024.33 131.975C1035.36 125.041 1047.67 121.574 1061.24 121.574C1082.82 121.574 1099.47 128.459 1111.19 142.229C1123.01 155.998 1128.92 175.48 1128.92 200.676V215.031H1025.35C1026.43 228.117 1030.77 238.469 1038.39 246.086C1046.1 253.703 1055.77 257.512 1067.39 257.512C1083.7 257.512 1096.98 250.92 1107.24 237.736L1126.43 256.047C1120.08 265.52 1111.58 272.893 1100.94 278.166C1090.39 283.342 1078.53 285.93 1065.34 285.93ZM1061.09 150.139C1051.33 150.139 1043.42 153.557 1037.36 160.393C1031.41 167.229 1027.6 176.75 1025.94 188.957H1093.76V186.32C1092.98 174.406 1089.8 165.422 1084.24 159.367C1078.67 153.215 1070.96 150.139 1061.09 150.139ZM1077.21 102.385H1047.62L1008.07 58H1048.64L1077.21 102.385Z" fill="#FF9800"/>
<rect x="17.5" y="17.7225" width="1168" height="358.777" stroke="white" stroke-width="35"/>
</svg>
