<svg width="1203" height="394" viewBox="0 0 1203 394" fill="none" xmlns="http://www.w3.org/2000/svg">
<path d="M118.32 141.567C129.941 128.09 144.639 121.352 162.412 121.352C196.201 121.352 213.34 140.639 213.828 179.213V282.777H178.232V180.531C178.232 169.594 175.84 161.879 171.055 157.387C166.367 152.797 159.434 150.502 150.254 150.502C135.996 150.502 125.352 156.85 118.32 169.545V282.777H82.7246V57.7775H118.32V141.567ZM345.957 267.25C335.508 279.555 320.664 285.707 301.426 285.707C284.238 285.707 271.201 280.678 262.314 270.619C253.525 260.561 249.131 246.01 249.131 226.967V124.281H284.727V226.527C284.727 246.645 293.076 256.703 309.775 256.703C327.061 256.703 338.73 250.502 344.785 238.1V124.281H380.381V282.777H346.836L345.957 267.25ZM333.652 102.162H304.062L264.512 57.7775H305.088L333.652 102.162ZM449.668 124.281L450.693 142.592C462.412 128.432 477.793 121.352 496.836 121.352C529.844 121.352 546.641 140.248 547.227 178.041V282.777H511.631V180.092C511.631 170.033 509.434 162.611 505.039 157.826C500.742 152.943 493.662 150.502 483.799 150.502C469.443 150.502 458.75 156.996 451.719 169.984V282.777H416.123V124.281H449.668ZM577.402 202.358C577.402 177.748 583.164 158.119 594.688 143.471C606.309 128.725 621.689 121.352 640.83 121.352C658.896 121.352 673.105 127.651 683.457 140.248L685.068 124.281H717.148V277.943C717.148 298.744 710.654 315.151 697.666 327.162C684.775 339.174 667.344 345.18 645.371 345.18C633.75 345.18 622.373 342.738 611.24 337.856C600.205 333.07 591.807 326.772 586.045 318.959L602.891 297.572C613.828 310.561 627.305 317.055 643.32 317.055C655.137 317.055 664.463 313.832 671.299 307.387C678.135 301.039 681.553 291.664 681.553 279.262V268.568C671.299 279.994 657.627 285.707 640.537 285.707C621.982 285.707 606.797 278.334 594.98 263.588C583.262 248.842 577.402 228.432 577.402 202.358ZM612.852 205.434C612.852 221.352 616.074 233.901 622.52 243.08C629.062 252.162 638.096 256.703 649.619 256.703C663.975 256.703 674.619 250.551 681.553 238.246V168.52C674.814 156.508 664.268 150.502 649.912 150.502C638.193 150.502 629.062 155.141 622.52 164.418C616.074 173.695 612.852 187.367 612.852 205.434Z" fill="#1C2730"/>
<path d="M861.582 124.281L862.607 142.592C874.326 128.432 889.707 121.352 908.75 121.352C941.758 121.352 958.555 140.248 959.141 178.041V282.777H923.545V180.092C923.545 170.033 921.348 162.611 916.953 157.826C912.656 152.943 905.576 150.502 895.713 150.502C881.357 150.502 870.664 156.996 863.633 169.984V282.777H828.037V124.281H861.582ZM1065.34 285.707C1042.78 285.707 1024.47 278.627 1010.41 264.467C996.445 250.209 989.463 231.264 989.463 207.631V203.236C989.463 187.416 992.49 173.305 998.545 160.902C1004.7 148.402 1013.29 138.686 1024.33 131.752C1035.36 124.818 1047.67 121.352 1061.24 121.352C1082.82 121.352 1099.47 128.236 1111.19 142.006C1123.01 155.776 1128.92 175.258 1128.92 200.453V214.809H1025.35C1026.43 227.895 1030.77 238.246 1038.39 245.863C1046.1 253.481 1055.77 257.289 1067.39 257.289C1083.7 257.289 1096.98 250.697 1107.24 237.514L1126.43 255.824C1120.08 265.297 1111.58 272.67 1100.94 277.943C1090.39 283.119 1078.53 285.707 1065.34 285.707ZM1061.09 149.916C1051.33 149.916 1043.42 153.334 1037.36 160.17C1031.41 167.006 1027.6 176.527 1025.94 188.734H1093.76V186.098C1092.98 174.184 1089.8 165.199 1084.24 159.145C1078.67 152.992 1070.96 149.916 1061.09 149.916ZM1077.21 102.162H1047.62L1008.07 57.7775H1048.64L1077.21 102.162Z" fill="#00BCD4"/>
<rect x="14.5" y="14.5" width="1174" height="364.777" stroke="#1C2730" stroke-width="29"/>
</svg>
